<svg width="41" height="41" viewBox="0 0 41 41" fill="none" xmlns="http://www.w3.org/2000/svg">
<path fill-rule="evenodd" clip-rule="evenodd" d="M39.2063 26.4329C40.0323 26.4949 40.6503 27.2169 40.5883 28.0429L40.2083 33.0609C39.8943 37.2009 36.4003 40.4429 32.2503 40.4429H9.05028C4.90028 40.4429 1.40628 37.2009 1.09228 33.0609L0.712281 28.0429C0.650281 27.2169 1.27028 26.4949 2.09628 26.4329C2.92628 26.4029 3.64228 26.9889 3.70628 27.8169L4.08428 32.8329C4.28028 35.4169 6.46028 37.4429 9.05028 37.4429H32.2503C34.8403 37.4429 37.0223 35.4169 37.2163 32.8329L37.5963 27.8169C37.6603 26.9889 38.3943 26.4009 39.2063 26.4329ZM23.2307 0.962723C26.2366 0.962723 28.7268 3.21525 29.1019 6.12078L33.0409 6.12252C37.2329 6.12252 40.6409 9.54052 40.6409 13.7445V20.6225C40.6409 21.1565 40.3569 21.6485 39.8989 21.9165C34.9623 24.8075 28.7087 26.4937 22.15 26.7187L22.1507 30.3159C22.1507 31.1439 21.4787 31.8159 20.6507 31.8159C19.8227 31.8159 19.1507 31.1439 19.1507 30.3159L19.1494 26.7192C12.5972 26.4963 6.34319 24.8097 1.40288 21.9165C0.942881 21.6485 0.660881 21.1565 0.660881 20.6225V13.7245C0.660881 9.53252 4.07888 6.12252 8.28088 6.12252L12.1995 6.12078C12.5746 3.21525 15.0648 0.962723 18.0707 0.962723H23.2307ZM33.0409 9.12252H8.28088C5.73288 9.12252 3.66088 11.1865 3.66088 13.7245V19.7485C8.40831 22.328 14.3933 23.7418 20.6229 23.7445L20.6507 23.7419L20.6729 23.7427L21.6252 23.7328C27.5168 23.5924 33.1371 22.1946 37.6409 19.7485V13.7445C37.6409 11.1945 35.5789 9.12252 33.0409 9.12252ZM23.2307 3.96272H18.0707C16.724 3.96272 15.5872 4.87927 15.2514 6.12128H26.05C25.7142 4.87927 24.5774 3.96272 23.2307 3.96272Z" fill="#53545C"/>
</svg>
