<svg width="35" height="42" viewBox="0 0 35 42" fill="none" xmlns="http://www.w3.org/2000/svg">
<path fill-rule="evenodd" clip-rule="evenodd" d="M23.402 0C30.186 0 34.078 3.358 34.078 9.208V38.28C34.078 39.5 33.45 40.598 32.394 41.212C31.342 41.828 30.074 41.84 29.01 41.24L17.09 34.506L5.06 41.254C4.54 41.546 3.97 41.694 3.398 41.694C2.808 41.694 2.218 41.536 1.682 41.22C0.628 40.606 0 39.508 0 38.29V8.842C0 3.222 3.894 0 10.684 0H23.402ZM23.402 3H10.684C5.586 3 3 4.964 3 8.842V38.29C3 38.478 3.108 38.58 3.198 38.632C3.288 38.688 3.43 38.728 3.594 38.636L16.358 31.476C16.814 31.222 17.372 31.22 17.83 31.478L30.484 38.626C30.65 38.722 30.792 38.678 30.882 38.624C30.972 38.57 31.078 38.468 31.078 38.28L31.0773 8.98009C31.0621 7.25875 30.7291 3 23.402 3ZM24.2796 13.457C25.1076 13.457 25.7796 14.129 25.7796 14.957C25.7796 15.785 25.1076 16.457 24.2796 16.457H9.6436C8.8156 16.457 8.1436 15.785 8.1436 14.957C8.1436 14.129 8.8156 13.457 9.6436 13.457H24.2796Z" fill="#53545C"/>
</svg>
