<svg width="42" height="42" viewBox="0 0 42 42" fill="none" xmlns="http://www.w3.org/2000/svg">
<path fill-rule="evenodd" clip-rule="evenodd" d="M15.8188 0.650589C17.7208 0.652589 19.5328 1.56059 20.6688 3.07859L22.4908 5.50259C23.0688 6.27059 23.9868 6.72859 24.9468 6.73059H30.6048C38.3288 6.73059 41.9268 10.6886 41.9268 19.1866L41.8708 29.1206C41.8688 37.0566 36.9368 41.9886 28.9968 41.9886H13.4328C5.47681 41.9886 0.532814 37.0546 0.532814 29.1146V13.5166C0.532814 4.97859 4.33081 0.650589 11.8188 0.650589H15.8188ZM15.8168 3.65059H11.8188C6.01081 3.65059 3.53281 6.60259 3.53281 13.5166V29.1146C3.53281 35.4826 7.04881 38.9886 13.4328 38.9886H28.9968C35.3648 38.9886 38.8708 35.4826 38.8708 29.1146V29.1086L38.9268 19.1786C38.9268 12.3806 36.5948 9.73059 30.6048 9.73059H24.9448C23.0468 9.72859 21.2348 8.82259 20.0948 7.30659L18.2688 4.87859C17.6948 4.10859 16.7768 3.65259 15.8168 3.65059ZM29.9652 25.0762C30.7932 25.0762 31.4652 25.7482 31.4652 26.5762C31.4652 27.4042 30.7932 28.0762 29.9652 28.0762H12.4952C11.6672 28.0762 10.9952 27.4042 10.9952 26.5762C10.9952 25.7482 11.6672 25.0762 12.4952 25.0762H29.9652Z" fill="#53545C"/>
</svg>
