<svg width="41" height="41" viewBox="0 0 41 41" fill="none" xmlns="http://www.w3.org/2000/svg">
<path opacity="0.4" d="M0.254913 9.69216C0.254913 4.79016 4.31539 0.798157 9.30398 0.798157H19.2262C24.2046 0.798157 28.2549 4.77816 28.2549 9.67216V31.9042C28.2549 36.8082 24.1944 40.7982 19.2038 40.7982H9.28566C4.30522 40.7982 0.254913 36.8182 0.254913 31.9242V30.0442V9.69216Z" fill="#FF0000"/>
<path d="M39.8128 19.7077L34.1212 13.8897C33.5329 13.2897 32.5863 13.2897 32 13.8937C31.4156 14.4977 31.4176 15.4717 32.0039 16.0717L35.1224 19.2577H32.1324H15.3518C14.524 19.2577 13.852 19.9477 13.852 20.7977C13.852 21.6497 14.524 22.3377 15.3518 22.3377H35.1224L32.0039 25.5237C31.4176 26.1237 31.4156 27.0977 32 27.7017C32.2941 28.0037 32.6778 28.1557 33.0635 28.1557C33.4453 28.1557 33.829 28.0037 34.1212 27.7057L39.8128 21.8897C40.0952 21.5997 40.2549 21.2077 40.2549 20.7977C40.2549 20.3897 40.0952 19.9977 39.8128 19.7077Z" fill="#FF0000"/>
</svg>
