<svg width="40" height="39" viewBox="0 0 40 39" fill="none" xmlns="http://www.w3.org/2000/svg">
<path fill-rule="evenodd" clip-rule="evenodd" d="M15.184 23.914C21.702 23.914 30.368 24.648 30.368 30.998C30.368 37.687 20.2702 38.0884 15.9388 38.1125L14.3662 38.1125C9.74787 38.0885 0 37.6894 0 31.038C0 24.3414 10.0978 23.9396 14.4292 23.9155L14.9496 23.9141C15.0307 23.914 15.1089 23.914 15.184 23.914ZM15.184 26.914C9.626 26.914 3 27.628 3 31.038C3 33.742 7.1 35.114 15.184 35.114C23.268 35.114 27.368 33.728 27.368 30.998C27.368 28.288 23.268 26.914 15.184 26.914ZM33.4134 22.9798C38.8254 23.7898 39.9594 26.2958 39.9594 28.2538C39.9594 29.7118 39.3294 31.6858 36.3234 32.8238C36.1494 32.8898 35.9694 32.9218 35.7914 32.9218C35.1854 32.9218 34.6154 32.5518 34.3894 31.9538C34.0954 31.1798 34.4854 30.3118 35.2594 30.0198C36.9594 29.3758 36.9594 28.5898 36.9594 28.2538C36.9594 27.1198 35.6174 26.3438 32.9714 25.9498C32.1514 25.8258 31.5854 25.0618 31.7074 24.2438C31.8314 23.4238 32.6094 22.8738 33.4134 22.9798ZM15.184 0C20.846 0 25.4541 4.608 25.4541 10.27C25.466 12.998 24.408 15.574 22.48 17.514C20.556 19.456 17.986 20.53 15.252 20.54H15.184C9.52 20.54 4.912 15.932 4.912 10.27C4.912 4.608 9.52 0 15.184 0ZM29.3592 2.2476C33.2892 2.8916 36.1412 6.2536 36.1412 10.2396C36.1332 14.2496 33.1392 17.6936 29.1752 18.2496C29.1052 18.2596 29.0352 18.2636 28.9652 18.2636C28.2292 18.2636 27.5872 17.7216 27.4812 16.9716C27.3672 16.1516 27.9372 15.3916 28.7572 15.2776C31.2532 14.9276 33.1372 12.7616 33.1412 10.2376C33.1412 7.7296 31.3452 5.6136 28.8752 5.2096C28.0572 5.0736 27.5032 4.3036 27.6372 3.4856C27.7712 2.6676 28.5452 2.1176 29.3592 2.2476ZM15.184 3C11.174 3 7.912 6.262 7.912 10.27C7.912 14.278 11.174 17.54 15.184 17.54H15.246C17.174 17.532 18.99 16.774 20.352 15.4C21.716 14.03 22.462 12.208 22.4541 10.276C22.4541 6.262 19.192 3 15.184 3Z" fill="#53545C"/>
</svg>
