<svg width="42" height="32" viewBox="0 0 42 32" fill="none" xmlns="http://www.w3.org/2000/svg">
<path fill-rule="evenodd" clip-rule="evenodd" d="M12.178 0.00226865L13.1187 0.00347595C13.2795 0.00370306 13.4421 0.00394226 13.6062 0.00419226L14.6059 0.0058116C16.7995 0.00955646 19.136 0.0146923 20.9168 0.0183937L21.6966 0.0199898C21.8192 0.0202355 21.9378 0.02047 22.0522 0.0206923C26.5522 -0.295308 30.6142 3.04469 30.9762 7.52669C30.9796 7.57267 30.9825 7.83354 30.985 8.30808L35.1366 4.90809C36.3446 3.91809 37.9706 3.72409 39.3806 4.39009C40.7906 5.06009 41.6666 6.44409 41.6646 8.00409L41.6406 22.7021C41.6386 24.2621 40.7606 25.6461 39.3526 26.3101C38.8006 26.5721 38.2166 26.6981 37.6366 26.6981C36.7346 26.6981 35.8446 26.3881 35.1106 25.7861L30.9943 22.3705C30.9943 22.4284 30.9942 22.4865 30.9942 22.5447C31.0782 24.6567 30.3262 26.6907 28.8742 28.2707C27.3482 29.9327 25.2442 30.8987 22.9522 30.9927C22.9133 30.9955 22.6943 30.9974 22.3348 30.9985L21.5447 30.9999C21.2364 31.0001 20.8863 31.0001 20.5027 31L18.8108 30.9984C18.6584 30.9982 18.5035 30.9979 18.3465 30.9977L17.3817 30.9962C15.083 30.9923 12.4936 30.9863 10.4861 30.9819L9.66389 30.9802C9.4034 30.9796 9.15733 30.9791 8.92821 30.9787C8.71621 30.9947 8.50421 31.0027 8.29221 31.0027C4.06421 31.0047 0.376214 27.7647 0.028214 23.5147L0.0279025 23.5104L0.026034 23.4707C0.025894 23.4664 0.0257512 23.4617 0.0256059 23.4564L0.0242325 23.3934C0.0240733 23.3845 0.023912 23.3748 0.0237488 23.3644L0.0222355 23.2479C0.0220629 23.2323 0.021889 23.2156 0.021714 23.1979L0.020114 23.0089C0.019934 22.9844 0.0197535 22.9586 0.0195725 22.9315L0.018484 22.7529C0.0183024 22.7203 0.0181207 22.6863 0.0179392 22.6508L0.0163159 22.2888C0.0161372 22.2437 0.0159592 22.1968 0.0157822 22.1482L0.0142188 21.6612C0.014049 21.6013 0.0138807 21.5395 0.013714 21.4757L0.012264 20.8444C0.012109 20.7678 0.0119562 20.6889 0.0118059 20.6077L0.0101288 19.5189C0.0100007 19.4183 0.00987568 19.3151 0.00975402 19.2092L0.00820217 17.4159C0.00811846 17.282 0.00803902 17.1453 0.00796402 17.0054L0.0079355 9.16959C0.00802124 8.93193 0.00811402 8.69033 0.00821402 8.44469C-0.087786 6.38269 0.660214 4.33469 2.12021 2.74069C3.64421 1.07669 5.74621 0.106692 8.04021 0.00869226C8.0711 0.00647004 8.21728 0.00479103 8.45838 0.00357292L8.8887 0.00208115C8.97143 0.00188671 9.05947 0.0017185 9.15248 0.00157524L11.7287 0.00179308C11.8758 0.00193609 12.0257 0.00209504 12.178 0.00226865ZM22.1602 3.01669C19.6351 3.01303 16.5476 3.00861 13.9127 3.00573L12.5266 3.00433C12.305 3.00413 12.0888 3.00394 11.8786 3.00377L8.40044 3.00388C8.26955 3.00447 8.18488 3.00536 8.15221 3.00669C6.67621 3.06869 5.31421 3.69469 4.33221 4.76669C3.41621 5.76869 2.94421 7.04869 3.00621 8.37669L3.00787 16.1026C3.00795 16.2732 3.00805 16.4425 3.00814 16.6105L3.00998 18.9986C3.01012 19.1472 3.01028 19.2933 3.01044 19.4367L3.01147 20.2629C3.01165 20.3946 3.01184 20.5231 3.01204 20.6483L3.01398 21.6782C3.01611 22.6055 3.01881 23.2069 3.02221 23.3227C3.25021 26.0927 5.84621 28.2107 8.81821 27.9827C9.1325 27.9831 9.45543 27.9836 9.78507 27.9842L10.7921 27.9858C11.6449 27.9872 12.5274 27.9887 13.4093 27.9901L14.4653 27.9919C14.9912 27.9928 15.5126 27.9936 16.0228 27.9944L17.0263 27.9959C17.1905 27.9962 17.3529 27.9964 17.5133 27.9966L18.4504 27.9978C18.602 27.998 18.7512 27.9982 18.8976 27.9984L22.4285 27.9983C22.6595 27.9975 22.8046 27.9963 22.8482 27.9947C24.3182 27.9347 25.6822 27.3107 26.6642 26.2407C27.5822 25.2427 28.0542 23.9627 27.9962 22.6407L27.9945 22.6077L27.9941 12.9353C27.994 12.7782 27.9939 12.6232 27.9938 12.4703L27.9923 10.7587C27.9922 10.6274 27.992 10.4992 27.9918 10.3744L27.9901 9.34763C27.9895 9.03951 27.9888 8.76752 27.988 8.53761L27.9863 8.13564C27.9851 7.90743 27.9837 7.76107 27.9822 7.71069C27.7562 4.92669 25.1482 2.78269 22.1602 3.01669ZM37.0366 7.23009L30.9935 12.1607C30.9937 12.4064 30.9939 12.6618 30.9941 12.927L30.9954 17.9423L37.0126 23.4681C37.4546 23.8281 37.8986 23.6801 38.0706 23.5961C38.2426 23.5161 38.6406 23.2661 38.6406 22.6981L38.6646 8.00009C38.6666 7.43209 38.2666 7.18209 38.0946 7.10009C37.9246 7.02009 37.4746 6.87009 37.0366 7.23009Z" fill="#53545C"/>
</svg>
