<svg width="42" height="39" viewBox="0 0 42 39" fill="none" xmlns="http://www.w3.org/2000/svg">
<path fill-rule="evenodd" clip-rule="evenodd" d="M29.2832 0C35.8972 0 41.2772 5.38 41.2772 11.996V26.35C41.2772 32.964 35.8972 38.346 29.2832 38.346H11.9952C5.38121 38.346 -0.000793457 32.964 -0.000793457 26.35V11.996C-0.000793457 5.38 5.38121 0 11.9952 0H29.2832ZM29.2832 3H11.9952C7.03521 3 2.99921 7.036 2.99921 11.996V26.35C2.99921 31.31 7.03521 35.346 11.9952 35.346H29.2832C34.2432 35.346 38.2772 31.31 38.2772 26.35V25.79L31.6814 25.7912C27.8874 25.7912 24.7994 22.7052 24.7974 18.9132C24.7974 15.1172 27.8854 12.0292 31.6814 12.0272L38.2772 12.026V11.996C38.2772 7.036 34.2432 3 29.2832 3ZM38.2772 15.026L31.6814 15.0272C29.5394 15.0292 27.7974 16.7712 27.7974 18.9112C27.7974 21.0492 29.5414 22.7912 31.6814 22.7912L38.2772 22.79V15.026ZM32.5966 17.2872C33.4246 17.2872 34.0966 17.9592 34.0966 18.7872C34.0966 19.6152 33.4246 20.2872 32.5966 20.2872H31.9726C31.1446 20.2872 30.4726 19.6152 30.4726 18.7872C30.4726 17.9592 31.1446 17.2872 31.9726 17.2872H32.5966ZM21.3692 9.0762C22.1972 9.0762 22.8692 9.7482 22.8692 10.5762C22.8692 11.4042 22.1972 12.0762 21.3692 12.0762H10.5712C9.74321 12.0762 9.07121 11.4042 9.07121 10.5762C9.07121 9.7482 9.74321 9.0762 10.5712 9.0762H21.3692Z" fill="#53545C"/>
</svg>
