<svg width="43" height="43" viewBox="0 0 43 43" fill="none" xmlns="http://www.w3.org/2000/svg">
<path fill-rule="evenodd" clip-rule="evenodd" d="M30.872 0C38.126 0 43 5.092 43 12.67V30.33C43 37.908 38.126 43 30.872 43H12.128C4.874 43 0 37.908 0 30.33V12.67C0 5.092 4.874 0 12.128 0H30.872ZM30.872 3H12.128C6.584 3 3 6.794 3 12.67V30.33C3 36.206 6.584 40 12.128 40H30.872C36.418 40 40 36.206 40 30.33V12.67C40 6.794 36.418 3 30.872 3ZM12.2422 16.405C13.0702 16.405 13.7422 17.077 13.7422 17.905V31.625C13.7422 32.453 13.0702 33.125 12.2422 33.125C11.4142 33.125 10.7422 32.453 10.7422 31.625V17.905C10.7422 17.077 11.4142 16.405 12.2422 16.405ZM21.5762 9.837C22.4042 9.837 23.0762 10.509 23.0762 11.337V31.623C23.0762 32.451 22.4042 33.123 21.5762 33.123C20.7482 33.123 20.0762 32.451 20.0762 31.623V11.337C20.0762 10.509 20.7482 9.837 21.5762 9.837ZM30.7568 23.655C31.5848 23.655 32.2568 24.327 32.2568 25.155V31.623C32.2568 32.451 31.5848 33.123 30.7568 33.123C29.9288 33.123 29.2568 32.451 29.2568 31.623V25.155C29.2568 24.327 29.9288 23.655 30.7568 23.655Z" fill="white"/>
</svg>
