<svg width="37" height="40" viewBox="0 0 37 40" fill="none" xmlns="http://www.w3.org/2000/svg">
<path fill-rule="evenodd" clip-rule="evenodd" d="M32.7692 13.4394C33.5952 13.5074 34.2112 14.2294 34.1452 15.0554C34.1332 15.1914 33.0492 28.6134 32.4252 34.2434C32.0372 37.7374 29.7292 39.8634 26.2452 39.9274C23.5792 39.9734 21.0072 39.9994 18.4932 39.9994C15.7832 39.9994 13.1412 39.9694 10.5272 39.9154C7.1832 39.8494 4.8692 37.6814 4.4912 34.2574C3.8612 28.5774 2.7832 15.1894 2.7732 15.0554C2.7052 14.2294 3.3212 13.5054 4.1472 13.4394C4.9612 13.4174 5.6972 13.9894 5.7632 14.8134C5.76958 14.9002 6.21028 20.3675 6.69052 25.7768L6.78698 26.8563C7.02886 29.545 7.27405 32.1287 7.4732 33.9274C7.6872 35.8734 8.7372 36.8774 10.5892 36.9154C15.5892 37.0214 20.6912 37.0274 26.1912 36.9274C28.1592 36.8894 29.2232 35.9054 29.4432 33.9134C30.0632 28.3254 31.1432 14.9494 31.1552 14.8134C31.2212 13.9894 31.9512 13.4134 32.7692 13.4394ZM22.6908 0C24.5268 0 26.1408 1.238 26.6148 3.012L27.1228 5.534C27.287 6.36075 28.0125 6.96451 28.8526 6.97778L35.416 6.978C36.244 6.978 36.916 7.65 36.916 8.478C36.916 9.306 36.244 9.978 35.416 9.978L28.9112 9.9777C28.9011 9.9779 28.8909 9.978 28.8808 9.978L28.832 9.976L8.08324 9.97776C8.06711 9.97792 8.05096 9.978 8.0348 9.978L8.004 9.976L1.5 9.978C0.672 9.978 0 9.306 0 8.478C0 7.65 0.672 6.978 1.5 6.978L8.062 6.976L8.26404 6.96321C9.01662 6.86557 9.64207 6.294 9.7948 5.534L10.2808 3.102C10.7748 1.238 12.3888 0 14.2248 0H22.6908ZM22.6908 3H14.2248C13.7448 3 13.3228 3.322 13.2008 3.784L12.7348 6.124C12.6756 6.42039 12.5893 6.70603 12.479 6.97854H24.4372C24.3267 6.70603 24.2403 6.42039 24.1808 6.124L23.6948 3.692C23.5928 3.322 23.1708 3 22.6908 3Z" fill="#53545C"/>
</svg>
