<svg width="40" height="37" viewBox="0 0 40 37" fill="none" xmlns="http://www.w3.org/2000/svg">
<path fill-rule="evenodd" clip-rule="evenodd" d="M10.734 9.465C11.562 9.465 12.234 10.137 12.234 10.965C12.234 11.793 11.562 12.465 10.734 12.465H8.852C5.624 12.465 3 15.087 3 18.313V28.083C3 31.321 5.632 33.953 8.87 33.953H31.15C34.374 33.953 37 31.327 37 28.103V18.335C37 15.097 34.366 12.465 31.132 12.465H29.268C28.44 12.465 27.768 11.793 27.768 10.965C27.768 10.137 28.44 9.465 29.268 9.465H31.132C36.022 9.465 40 13.445 40 18.335V28.103C40 32.983 36.028 36.953 31.15 36.953H8.87C3.98 36.953 0 32.975 0 28.083V18.313C0 13.433 3.97 9.465 8.852 9.465H10.734ZM20.0016 0C20.8296 0 21.5016 0.672 21.5016 1.5L21.5 21.952L24.7716 18.668C25.3556 18.08 26.3036 18.08 26.8916 18.664C27.4776 19.248 27.4796 20.198 26.8956 20.786L21.0771 26.6273C21.0203 26.6857 20.9587 26.7396 20.8931 26.7882L21.0636 26.64C20.9992 26.7053 20.9293 26.764 20.855 26.8156C20.8096 26.8469 20.7635 26.8753 20.7159 26.9011C20.6929 26.9137 20.6688 26.9259 20.6444 26.9375C20.6008 26.9582 20.556 26.9769 20.5102 26.9935C20.4872 27.0016 20.4643 27.0092 20.4412 27.0163C20.3848 27.0337 20.3269 27.0478 20.2678 27.0584C20.2545 27.0606 20.2423 27.0627 20.2302 27.0645C20.1825 27.072 20.1327 27.0772 20.0823 27.0799C20.055 27.0813 20.0284 27.082 20.0016 27.082L19.922 27.076L19.7981 27.0683C19.7893 27.0671 19.7805 27.0658 19.7717 27.0645L20.0016 27.082C19.9122 27.082 19.8236 27.074 19.7366 27.0585C19.6764 27.0478 19.6187 27.0338 19.5623 27.0166C19.5397 27.0095 19.5176 27.0021 19.4957 26.9943C19.4497 26.978 19.4043 26.9591 19.3601 26.9382C19.3333 26.9254 19.3066 26.9118 19.2803 26.8974C19.2433 26.877 19.2077 26.8554 19.1731 26.8324C19.1494 26.8168 19.1257 26.8 19.1025 26.7825C19.0453 26.7396 18.9914 26.6928 18.9411 26.6425L18.9396 26.64L13.1076 20.786C12.5236 20.198 12.5256 19.248 13.1116 18.664C13.6996 18.08 14.6476 18.08 15.2316 18.668L18.5 21.952L18.5016 1.5C18.5016 0.672 19.1736 0 20.0016 0Z" fill="white"/>
</svg>
