<svg width="34" height="41" viewBox="0 0 34 41" fill="none" xmlns="http://www.w3.org/2000/svg">
<path fill-rule="evenodd" clip-rule="evenodd" d="M17.074 0.131372C22.914 0.131372 27.67 4.88737 27.67 10.7334L27.6698 13.8866C31.2202 15.1222 33.7742 18.5022 33.7742 22.469V31.047C33.7742 36.057 29.7002 40.131 24.6902 40.131H9.4082C4.3982 40.131 0.3242 36.057 0.3242 31.047V22.469C0.3242 18.5029 2.87724 15.1235 6.42661 13.8873L6.428 10.7334C6.44 7.85337 7.554 5.19537 9.564 3.20337C11.576 1.20937 14.232 0.0553717 17.074 0.131372ZM24.6902 16.385H9.4082C6.0522 16.385 3.3242 19.113 3.3242 22.469V31.047C3.3242 34.403 6.0522 37.131 9.4082 37.131H24.6902C28.0442 37.131 30.7742 34.403 30.7742 31.047V22.469C30.7742 19.113 28.0442 16.385 24.6902 16.385ZM17.0488 23.0366C17.8768 23.0366 18.5488 23.7086 18.5488 24.5366V28.9786C18.5488 29.8066 17.8768 30.4786 17.0488 30.4786C16.2208 30.4786 15.5488 29.8066 15.5488 28.9786V24.5366C15.5488 23.7086 16.2208 23.0366 17.0488 23.0366ZM17.068 3.13137H17.036C15.01 3.13137 13.112 3.91137 11.678 5.33337C10.234 6.76137 9.436 8.66737 9.428 10.6994L9.4262 13.3838H24.6682L24.67 10.7334C24.67 6.54137 21.26 3.13137 17.068 3.13137Z" fill="white"/>
</svg>
