<svg width="35" height="42" viewBox="0 0 35 42" fill="none" xmlns="http://www.w3.org/2000/svg">
<path fill-rule="evenodd" clip-rule="evenodd" d="M17.4697 0.700213C19.7357 0.700213 31.6257 4.78221 33.1997 6.35621C34.5117 7.66821 34.4917 8.72821 34.3997 13.8082C34.3637 15.8442 34.3137 18.6182 34.3137 22.4582C34.3137 36.2222 18.5737 41.1462 17.9037 41.3482C17.7617 41.3922 17.6157 41.4122 17.4697 41.4122C17.3237 41.4122 17.1777 41.3922 17.0357 41.3482C16.3657 41.1462 0.625688 36.2222 0.625688 22.4582C0.625688 18.6242 0.575687 15.8502 0.539687 13.8142C0.523259 12.906 0.509126 12.1262 0.504476 11.4504L0.503906 10.6877C0.521063 8.18246 0.756188 7.34021 1.74169 6.35621C3.31169 4.78221 15.2017 0.700213 17.4697 0.700213ZM17.4697 3.70021C15.7737 3.70021 5.07369 7.46821 3.83969 8.49821C3.47569 8.86421 3.46169 9.50021 3.53969 13.7582C3.57569 15.8102 3.62569 18.5982 3.62569 22.4582C3.62569 32.8602 15.0697 37.4782 17.4677 38.3282C19.8637 37.4742 31.3137 32.8302 31.3137 22.4582C31.3137 18.5942 31.3637 15.8042 31.4017 13.7522C31.4777 9.49821 31.4637 8.86221 31.0777 8.47821C29.8677 7.46821 19.1657 3.70021 17.4697 3.70021ZM24.9127 15.3792C25.4987 15.9652 25.4987 16.9152 24.9127 17.5012L17.1167 25.2992C16.8927 25.5248 16.6034 25.6711 16.2929 25.7205L16.0567 25.7392C15.6587 25.7392 15.2767 25.5812 14.9947 25.2992L11.2107 21.5112C10.6267 20.9252 10.6267 19.9732 11.2127 19.3892C11.7967 18.8032 12.7487 18.8032 13.3347 19.3892L16.0567 22.1152L22.7927 15.3792C23.3787 14.7932 24.3267 14.7932 24.9127 15.3792Z" fill="white"/>
</svg>
