<svg width="40" height="41" viewBox="0 0 40 41" fill="none" xmlns="http://www.w3.org/2000/svg">
<path d="M28.6796 0.498398C35.4596 0.498398 39.9996 5.2584 39.9996 12.3384V28.6804C39.9996 35.7404 35.4596 40.4984 28.6796 40.4984H11.3396C4.5596 40.4984 -0.000396729 35.7404 -0.000396729 28.6804V12.3384C-0.000396729 5.2584 4.5596 0.498398 11.3396 0.498398H28.6796ZM26.0196 14.4404C25.3396 13.7584 24.2396 13.7584 23.5396 14.4404L19.9996 17.9984L16.4396 14.4404C15.7396 13.7584 14.6396 13.7584 13.9596 14.4404C13.2796 15.1204 13.2796 16.2404 13.9596 16.9184L17.5196 20.4804L13.9596 24.0204C13.2796 24.7204 13.2796 25.8204 13.9596 26.4984C14.2996 26.8384 14.7596 27.0204 15.1996 27.0204C15.6596 27.0204 16.0996 26.8384 16.4396 26.4984L19.9996 22.9604L23.5596 26.4984C23.8996 26.8604 24.3396 27.0204 24.7796 27.0204C25.2396 27.0204 25.6796 26.8384 26.0196 26.4984C26.6996 25.8204 26.6996 24.7204 26.0196 24.0404L22.4596 20.4804L26.0196 16.9184C26.6996 16.2404 26.6996 15.1204 26.0196 14.4404Z" fill="#FF0000"/>
</svg>
