<svg width="40" height="33" viewBox="0 0 40 33" fill="none" xmlns="http://www.w3.org/2000/svg">
<path fill-rule="evenodd" clip-rule="evenodd" d="M20.0055 0C28.2775 0.006 35.7055 5.804 39.8775 15.512C40.0415 15.89 40.0415 16.318 39.8775 16.696C35.7075 26.406 28.2775 32.204 20.0055 32.21H19.9935C11.7215 32.204 4.2935 26.406 0.1215 16.696C-0.0405 16.318 -0.0405 15.89 0.1215 15.512C4.2935 5.804 11.7235 0.006 19.9935 0H20.0055ZM19.9995 3C13.1275 3.002 6.8595 7.888 3.1395 16.104C6.8595 24.322 13.1255 29.208 19.9995 29.21C26.8735 29.208 33.1395 24.322 36.8595 16.104C33.1395 7.888 26.8735 3.002 19.9995 3ZM19.9989 8.2816C24.3129 8.2816 27.8229 11.7916 27.8229 16.1056C27.8229 20.4176 24.3129 23.9256 19.9989 23.9256C15.6849 23.9256 12.1769 20.4176 12.1769 16.1056C12.1769 11.7916 15.6849 8.2816 19.9989 8.2816ZM19.9989 11.2816C17.3389 11.2816 15.1769 13.4456 15.1769 16.1056C15.1769 18.7636 17.3389 20.9256 19.9989 20.9256C22.6589 20.9256 24.8229 18.7636 24.8229 16.1056C24.8229 13.4456 22.6589 11.2816 19.9989 11.2816Z" fill="#53545C"/>
</svg>
