<svg width="34" height="41" viewBox="0 0 34 41" fill="none" xmlns="http://www.w3.org/2000/svg">
<path fill-rule="evenodd" clip-rule="evenodd" d="M16.7498 0.00353354C22.5898 0.00353354 27.3458 4.75953 27.3458 10.6055L27.3456 13.7587C30.896 14.9944 33.45 18.3744 33.45 22.3411V30.9191C33.45 35.9291 29.376 40.0031 24.366 40.0031H9.084C4.074 40.0031 0 35.9291 0 30.9191V22.3411C0 18.3751 2.55304 14.9956 6.10241 13.7594L6.1038 10.6055C6.1158 7.72553 7.2298 5.06753 9.2398 3.07553C11.2518 1.08153 13.9078 -0.0724665 16.7498 0.00353354ZM24.366 16.2571H9.084C5.728 16.2571 3 18.9851 3 22.3411V30.9191C3 34.2751 5.728 37.0031 9.084 37.0031H24.366C27.72 37.0031 30.45 34.2751 30.45 30.9191V22.3411C30.45 18.9851 27.72 16.2571 24.366 16.2571ZM16.7246 22.9087C17.5526 22.9087 18.2246 23.5807 18.2246 24.4087V28.8507C18.2246 29.6787 17.5526 30.3507 16.7246 30.3507C15.8966 30.3507 15.2246 29.6787 15.2246 28.8507V24.4087C15.2246 23.5807 15.8966 22.9087 16.7246 22.9087ZM16.7438 3.00353H16.7118C14.6858 3.00353 12.7878 3.78353 11.3538 5.20553C9.9098 6.63353 9.1118 8.53953 9.1038 10.5715L9.102 13.256H24.344L24.3458 10.6055C24.3458 6.41353 20.9358 3.00353 16.7438 3.00353Z" fill="#53545C"/>
</svg>
